<?xml version="1.0" encoding="UTF-8"?>
<svg width="113px" height="36px" viewBox="0 0 113 36" version="1.1" xmlns="http://www.w3.org/2000/svg" xmlns:xlink="http://www.w3.org/1999/xlink">
    <title>Group</title>
    <g id="Symbols" stroke="none" stroke-width="1" fill="none" fill-rule="evenodd">
        <g id="Header" transform="translate(-50.000000, -22.000000)" fill="#FFFFFF" fill-rule="nonzero">
            <g id="Group">
                <g transform="translate(50.000000, 22.000000)">
                    <path d="M7.40633323,24.3870968 C8.52619118,24.3870968 9.51879254,24.0946237 10.3841373,23.5096774 C11.2494821,22.9247312 12.0469567,22.1763441 12.7765611,21.2645161 C13.0989445,20.8860215 13.2601361,20.3526882 13.2601361,19.6645161 C13.2601361,19.3032258 13.1965078,19.0193548 13.0692513,18.8129032 C12.9419947,18.6064516 12.7680773,18.5032258 12.5474993,18.5032258 C12.2929861,18.5032258 12.0639242,18.6236559 11.8603137,18.8645161 C11.0967742,19.7591398 10.43504,20.4301075 9.87511098,20.8774194 C9.31518201,21.3247312 8.67041531,21.5483871 7.94081089,21.5483871 C7.04153102,21.5483871 6.38403867,21.1870968 5.96833383,20.4645161 C5.55262898,19.7419355 5.34477656,18.4860215 5.34477656,16.6967742 C5.34477656,16.2150538 5.36174411,15.544086 5.3956792,14.683871 L5.3956792,14.683871 L8.50073986,14.683871 C10.4180724,14.683871 11.3767387,14.0903226 11.3767387,12.9032258 C11.3767387,12.5763441 11.3173523,12.3526882 11.1985795,12.2322581 C11.0798066,12.111828 10.8846799,12.0516129 10.6131992,12.0516129 L10.6131992,12.0516129 L7.76265167,12.0516129 C9.96843248,10.0731183 11.0713229,7.75053763 11.0713229,5.08387097 C11.0713229,4.12043011 10.8677123,3.32043011 10.4604913,2.68387097 C10.0532702,2.04731183 9.49334123,1.72903226 8.78070435,1.72903226 C7.81355431,1.72903226 6.91003255,2.19354839 6.07013909,3.12258065 C5.23024563,4.0516129 4.51336687,5.29892473 3.91950281,6.86451613 C3.32563875,8.43010753 2.88448259,10.1591398 2.59603433,12.0516129 L2.59603433,12.0516129 L1.14530926,12.0516129 C0.381769754,12.0516129 0,12.5333333 0,13.4967742 C0,13.9096774 0.0890796094,14.2107527 0.267238828,14.4 C0.445398047,14.5892473 0.788990826,14.683871 1.29801716,14.683871 L1.29801716,14.683871 L2.29061853,14.683871 C2.23971589,15.4580645 2.21426458,16.2236559 2.21426458,16.9806452 C2.21426458,21.9182796 3.94495413,24.3870968 7.40633323,24.3870968 Z M5.65019236,11.6645161 C5.83683536,10.2709677 6.07013909,9.00215054 6.35010358,7.85806452 C6.63006807,6.71397849 6.9270001,5.81935484 7.24089967,5.17419355 C7.55479925,4.52903226 7.83900562,4.20645161 8.09351879,4.20645161 C8.46680477,4.20645161 8.65344777,4.71397849 8.65344777,5.72903226 C8.65344777,6.62365591 8.40317648,7.6172043 7.90263392,8.70967742 C7.40209135,9.80215054 6.6512775,10.7870968 5.65019236,11.6645161 Z M13.005623,24.3870968 C13.5316168,24.3870968 13.9176285,24.2451613 14.1636579,23.9612903 C14.4096873,23.6774194 14.6260235,23.1311828 14.8126665,22.3225806 C15.0671796,21.2731183 15.3980468,20.2752688 15.8052678,19.3290323 C16.2124889,18.3827957 16.6239519,17.6215054 17.0396567,17.0451613 C17.4553615,16.4688172 17.7904706,16.1806452 18.0449837,16.1806452 C18.2316267,16.1806452 18.3249482,16.3182796 18.3249482,16.5935484 C18.3249482,16.7139785 18.3079807,16.9462366 18.2740456,17.2903226 C18.2231429,17.5483871 18.1976916,17.8064516 18.1976916,18.0645161 C18.1976916,18.855914 18.4309954,19.483871 18.8976028,19.9483871 C19.3642103,20.4129032 20.047154,20.6451613 20.9464339,20.6451613 C21.6590707,20.6451613 22.3335306,20.4688172 22.9698136,20.116129 C23.6060965,19.7634409 24.1617836,19.3376344 24.6368748,18.8387097 C24.9762257,18.4774194 25.1459012,17.9784946 25.1459012,17.3419355 C25.1459012,17.0150538 25.0822729,16.7526882 24.9550163,16.5548387 C24.8277597,16.3569892 24.6538424,16.2580645 24.4332643,16.2580645 C24.1957187,16.2580645 23.9666568,16.3698925 23.7460787,16.5935484 C22.9995068,17.3505376 22.3886752,17.7290323 21.9135839,17.7290323 C21.4893953,17.7290323 21.277301,17.427957 21.277301,16.8258065 C21.277301,16.6537634 21.3451712,16.2236559 21.4809115,15.5354839 C21.6336194,14.6752688 21.7099734,14.1333333 21.7099734,13.9096774 C21.7099734,12.7913978 21.1585282,12.2322581 20.0556378,12.2322581 C19.4957088,12.2322581 18.8806353,12.4301075 18.2104173,12.8258065 C17.5401993,13.2215054 16.8572556,13.883871 16.1615863,14.8129032 C15.4659169,15.7419355 14.8381178,16.9462366 14.2781888,18.4258065 C14.346059,17.6688172 14.4308967,17.0322581 14.532702,16.516129 C14.6345073,16 14.7702476,15.3978495 14.9399231,14.7096774 C15.1944362,13.7462366 15.3216928,13.1268817 15.3216928,12.8516129 C15.3216928,12.6107527 15.2538226,12.4473118 15.1180823,12.3612903 C14.9823419,12.2752688 14.7447963,12.2322581 14.4054454,12.2322581 C13.7776462,12.2322581 13.2898293,12.3483871 12.9419947,12.5806452 C12.59416,12.8129032 12.3438887,13.1784946 12.1911808,13.6774194 C11.5633817,15.6903226 11.2494821,17.8150538 11.2494821,20.0516129 C11.2494821,21.5655914 11.3809806,22.6666667 11.6439775,23.3548387 C11.9069745,24.0430108 12.3608563,24.3870968 13.005623,24.3870968 Z M31.8395975,24.3870968 C32.5692019,24.3870968 33.3242577,24.0860215 34.1047647,23.483871 C34.8852718,22.8817204 35.62336,22.1419355 36.3190293,21.2645161 C36.6414126,20.8860215 36.8026043,20.3526882 36.8026043,19.6645161 C36.8026043,19.3032258 36.738976,19.0193548 36.6117194,18.8129032 C36.4844629,18.6064516 36.3105455,18.5032258 36.0899674,18.5032258 C35.8354543,18.5032258 35.6063924,18.6236559 35.4027819,18.8645161 C34.6222748,19.8107527 34.0029595,20.4946237 33.5448358,20.916129 C33.086712,21.3376344 32.6964585,21.5483871 32.3740752,21.5483871 C32.1704646,21.5483871 32.0050311,21.4709677 31.8777745,21.316129 C31.7505179,21.1612903 31.6868896,20.9548387 31.6868896,20.6967742 C31.6868896,19.9225806 31.8820164,18.5462366 32.2722699,16.5677419 C32.5267831,15.2086022 32.6540397,14.3483871 32.6540397,13.9870968 C32.6540397,13.3849462 32.2383348,13.083871 31.4069251,13.083871 C31.0166716,13.083871 30.6433856,13.1182796 30.2870672,13.1870968 C30.2022295,12.8086022 30.0961823,12.5462366 29.9689257,12.4 C29.8416691,12.2537634 29.5913978,12.1806452 29.2181119,12.1806452 C28.0473513,12.1806452 26.940219,12.5548387 25.896715,13.3032258 C24.853211,14.0516129 24.0175594,15.0408602 23.3897603,16.2709677 C22.7619611,17.5010753 22.4480616,18.8043011 22.4480616,20.1806452 C22.4480616,21.4365591 22.7619611,22.4516129 23.3897603,23.2258065 C24.0175594,24 24.8574529,24.3870968 25.9094407,24.3870968 C27.2498767,24.3870968 28.3612509,23.6645161 29.2435632,22.2193548 C29.4811088,22.8903226 29.8331854,23.4193548 30.2997928,23.8064516 C30.7664003,24.1935484 31.2796685,24.3870968 31.8395975,24.3870968 Z M26.8256881,21.7806452 C26.4524021,21.7806452 26.1597119,21.6516129 25.9476176,21.3935484 C25.7355233,21.1354839 25.6294762,20.7397849 25.6294762,20.2064516 C25.6294762,19.2430108 25.8076354,18.3311828 26.1639538,17.4709677 C26.5202723,16.6107527 26.9996054,15.9182796 27.6019532,15.3935484 C28.2043011,14.8688172 28.8617934,14.5978495 29.5744303,14.5806452 L29.5744303,14.5806452 L28.6327316,19.3290323 C28.4800237,20.0688172 28.2339943,20.6623656 27.8946434,21.1096774 C27.5552925,21.5569892 27.1989741,21.7806452 26.8256881,21.7806452 Z M37.744303,24.3870968 C38.3721022,24.3870968 38.9320312,24.2064516 39.42409,23.8451613 C39.9161488,23.483871 40.5015291,22.8129032 41.1802308,21.8322581 C41.7740949,20.972043 42.3170563,20.1376344 42.8091151,19.3290323 C43.4708494,19.5354839 44.1750025,19.6387097 44.9215744,19.6387097 C45.8038868,19.6387097 46.6352964,19.5096774 47.4158035,19.2516129 C47.8230246,19.1139785 48.1284404,18.8946237 48.3320509,18.5935484 C48.5356614,18.2924731 48.6374667,17.8752688 48.6374667,17.3419355 C48.6374667,17.0494624 48.5695965,16.8172043 48.4338562,16.6451613 C48.2981158,16.4731183 48.1029891,16.3870968 47.8484759,16.3870968 C47.7297031,16.3870968 47.6448653,16.3956989 47.5939627,16.4129032 L47.5939627,16.4129032 L46.9067772,16.5419355 C45.8378218,16.7655914 44.9809608,16.8946237 44.3361941,16.9290323 C44.7434152,15.9311828 44.9470257,15.0451613 44.9470257,14.2709677 C44.9470257,13.6 44.7943178,13.088172 44.488902,12.7354839 C44.1834862,12.3827957 43.7847489,12.2064516 43.2926901,12.2064516 C42.7327612,12.2064516 42.2322186,12.3784946 41.7910624,12.7225806 C41.3499063,13.0666667 41.0020716,13.5139785 40.7475584,14.0645161 C40.4930453,14.6150538 40.3657887,15.1827957 40.3657887,15.7677419 C40.3657887,16.455914 40.4930453,17.0494624 40.7475584,17.5483871 C40.2385321,18.4602151 39.4749926,19.6817204 38.4569399,21.2129032 C38.2193943,18.0473118 38.1006215,15.4752688 38.1006215,13.4967742 C38.1006215,13.0322581 37.9945743,12.7010753 37.78248,12.5032258 C37.5703857,12.3053763 37.2437605,12.2064516 36.8026043,12.2064516 C36.2257078,12.2064516 35.7930354,12.3182796 35.5045872,12.5419355 C35.2161389,12.7655914 35.063431,13.1612903 35.0464635,13.7290323 L35.0464635,13.7290323 L35.0464635,14.6322581 C35.0464635,16.4387097 35.1482687,18.5462366 35.3518793,20.9548387 C35.4536845,22.1419355 35.7039558,23.0107527 36.1026931,23.5612903 C36.5014304,24.111828 37.0486337,24.3870968 37.744303,24.3870968 Z M51.6661734,24.3870968 C52.9726744,24.3870968 54.1985795,24.0602151 55.3438887,23.4064516 C56.489198,22.7526882 57.3757522,22.0387097 58.0035513,21.2645161 C58.3259347,20.8860215 58.4871264,20.3526882 58.4871264,19.6645161 C58.4871264,19.3032258 58.4234981,19.0193548 58.2962415,18.8129032 C58.1689849,18.6064516 57.9950676,18.5032258 57.7744895,18.5032258 C57.5199763,18.5032258 57.2909145,18.6236559 57.0873039,18.8645161 C56.3746671,19.7419355 55.5305317,20.4516129 54.5548979,20.9935484 C53.5792641,21.5354839 52.7096774,21.8064516 51.9461379,21.8064516 C50.7584098,21.8064516 49.9524514,21.4107527 49.5282628,20.6193548 C51.5304331,20.1204301 52.9514649,19.4451613 53.7913584,18.5935484 C54.6312518,17.7419355 55.0511986,16.7225806 55.0511986,15.5354839 C55.0511986,14.5204301 54.7542665,13.716129 54.1604025,13.1225806 C53.5665384,12.5290323 52.7775476,12.2322581 51.79343,12.2322581 C50.6905396,12.2322581 49.7021801,12.5333333 48.8283516,13.1354839 C47.954523,13.7376344 47.2715794,14.5505376 46.7795206,15.5741935 C46.2874618,16.5978495 46.0414324,17.7032258 46.0414324,18.8903226 C46.0414324,20.5935484 46.5334912,21.9354839 47.5176088,22.916129 C48.5017263,23.8967742 49.8845812,24.3870968 51.6661734,24.3870968 Z M49.1210417,18.6064516 L49.1210417,18.5548387 C49.1210417,17.5053763 49.3373779,16.6107527 49.7700503,15.8709677 C50.2027227,15.1311828 50.7329585,14.7612903 51.3607576,14.7612903 C51.6661734,14.7612903 51.9079609,14.8602151 52.0861202,15.0580645 C52.2642794,15.255914 52.353359,15.5182796 52.353359,15.8451613 C52.353359,16.4817204 52.0649107,17.0408602 51.4880142,17.5225806 C50.9111177,18.0043011 50.1221269,18.3655914 49.1210417,18.6064516 L49.1210417,18.6064516 Z M61.0068067,24.3870968 C62.0927296,24.3870968 63.0641215,24.0946237 63.9209825,23.5096774 C64.7778435,22.9247312 65.5710763,22.1763441 66.3006807,21.2645161 C66.623064,20.8860215 66.7842557,20.3526882 66.7842557,19.6645161 C66.7842557,19.3032258 66.7206274,19.0193548 66.5933708,18.8129032 C66.4661142,18.6064516 66.2921969,18.5032258 66.0716188,18.5032258 C65.8171057,18.5032258 65.5880438,18.6236559 65.3844333,18.8645161 C64.5699911,19.8451613 63.8997731,20.5376344 63.3737792,20.9419355 C62.8477853,21.3462366 62.2369537,21.5483871 61.5412844,21.5483871 C61.1001282,21.5483871 60.7438098,21.3978495 60.4723291,21.0967742 C60.2008484,20.7956989 60.0057216,20.2924731 59.8869488,19.5870968 C61.8042813,16.9376344 63.3228766,14.2623656 64.4427345,11.5612903 C65.5625925,8.86021505 66.1225215,6.48602151 66.1225215,4.43870968 C66.1225215,3.01075269 65.8892177,1.91397849 65.4226102,1.1483871 C64.9560028,0.382795699 64.315478,0 63.5010358,0 C62.0587945,0 60.8159219,0.96344086 59.7724179,2.89032258 C58.7289139,4.8172043 57.9399231,7.12258065 57.4054454,9.80645161 C56.8709677,12.4903226 56.6037289,14.8817204 56.6037289,16.9806452 C56.6037289,19.1655914 56.9642892,20.9462366 57.6854099,22.3225806 C58.4065305,23.6989247 59.5136628,24.3870968 61.0068067,24.3870968 Z M59.7087896,16.1032258 C59.7427247,14.1591398 59.9463352,12.1290323 60.3196212,10.0129032 C60.6929072,7.89677419 61.1255796,6.12473118 61.6176384,4.69677419 C62.1096971,3.2688172 62.5508533,2.55483871 62.9411068,2.55483871 C63.4161981,2.55483871 63.6537437,3.20860215 63.6537437,4.51612903 C63.6537437,6.18494624 63.2974253,8.03010753 62.5847884,10.0516129 C61.8721515,12.0731183 60.9134853,14.0903226 59.7087896,16.1032258 Z M69.1512282,24.3870968 C70.3559238,24.3870968 71.4333629,23.9526882 72.3835454,23.083871 C73.3337279,22.2150538 73.9700109,21.0580645 74.2923942,19.6129032 C75.5140574,19.5612903 76.6339154,19.3548387 77.651968,18.9935484 C78.1440268,18.8387097 78.3900562,18.3483871 78.3900562,17.5225806 C78.3900562,17.1784946 78.3306698,16.8946237 78.211897,16.6709677 C78.0931242,16.4473118 77.9234488,16.3354839 77.7028707,16.3354839 C77.6010654,16.3354839 77.4822926,16.3526882 77.3465522,16.3870968 C76.2436618,16.6795699 75.2934793,16.8516129 74.4960047,16.9032258 C74.3602644,15.5784946 73.8978988,14.4645161 73.108908,13.5612903 C72.3199171,12.6580645 71.280655,12.2064516 69.9911216,12.2064516 C68.9391339,12.2064516 67.9804676,12.4946237 67.1151228,13.0709677 C66.249778,13.6473118 65.5710763,14.4473118 65.0790175,15.4709677 C64.5869587,16.4946237 64.3409293,17.6602151 64.3409293,18.9677419 C64.3409293,19.9311828 64.5275723,20.8258065 64.9008582,21.6516129 C65.2741442,22.4774194 65.8213475,23.1397849 66.5424682,23.6387097 C67.2635888,24.1376344 68.1331755,24.3870968 69.1512282,24.3870968 Z M69.3548387,21.6516129 C68.8627799,21.6516129 68.4343494,21.4021505 68.0695472,20.9032258 C67.704745,20.4043011 67.5223439,19.6817204 67.5223439,18.7354839 C67.5223439,17.5311828 67.7471639,16.5978495 68.1968038,15.9354839 C68.6464437,15.2731183 69.2106146,14.9419355 69.8893164,14.9419355 L69.8893164,14.9419355 L70.016573,14.9419355 C69.9656703,15.2172043 69.940219,15.4924731 69.940219,15.7677419 C69.940219,16.4215054 70.0802012,17.0408602 70.3601657,17.6258065 C70.6401302,18.2107527 71.0431094,18.683871 71.5691033,19.0451613 C71.4333629,19.888172 71.1661241,20.5333333 70.7673868,20.9806452 C70.3686495,21.427957 69.8978001,21.6516129 69.3548387,21.6516129 Z M77.8555786,36 C79.6880734,36 81.1515241,34.7139785 82.2459307,32.1419355 C83.3403374,29.5698925 84.209924,26.0645161 84.8546907,21.6258065 C84.9225609,21.144086 85.0837526,20.1548387 85.3382658,18.6580645 C85.6945842,16.4387097 85.9066785,15.0623656 85.9745487,14.5290323 C85.9915162,14.4086022 86,14.2451613 86,14.0387097 C86,13.6602151 85.9109204,13.4064516 85.7327612,13.2774194 C85.554602,13.1483871 85.253428,13.083871 84.8292394,13.083871 C84.4050508,13.083871 84.0317648,13.1182796 83.7093815,13.1870968 C83.6245438,12.8086022 83.5184966,12.5462366 83.39124,12.4 C83.2639834,12.2537634 83.0137121,12.1806452 82.6404262,12.1806452 C81.4696656,12.1806452 80.3625333,12.5548387 79.3190293,13.3032258 C78.2755253,14.0516129 77.4398737,15.0408602 76.8120746,16.2709677 C76.1842754,17.5010753 75.8703759,18.8043011 75.8703759,20.1806452 C75.8703759,21.4365591 76.1842754,22.4516129 76.8120746,23.2258065 C77.4398737,24 78.2797672,24.3870968 79.331755,24.3870968 C79.7898787,24.3870968 80.2522443,24.2623656 80.7188517,24.0129032 C81.1854592,23.7634409 81.5629871,23.4064516 81.8514353,22.9419355 L81.8514353,22.9419355 L81.6987274,23.9483871 C79.0857256,25.9956989 77.3041334,27.7204301 76.3539509,29.1225806 C75.4037684,30.5247312 74.9286771,31.8365591 74.9286771,33.0580645 C74.9286771,33.9354839 75.2001578,34.6451613 75.7431193,35.1870968 C76.2860807,35.7290323 76.9902338,36 77.8555786,36 Z M80.2480024,21.7806452 C79.8747164,21.7806452 79.5820262,21.6516129 79.3699319,21.3935484 C79.1578376,21.1354839 79.0517905,20.7397849 79.0517905,20.2064516 C79.0517905,19.2430108 79.2299497,18.3311828 79.5862681,17.4709677 C79.9425866,16.6107527 80.4176778,15.9182796 81.0115419,15.3935484 C81.6054059,14.8688172 82.2501726,14.5978495 82.945842,14.5806452 L82.945842,14.5806452 L82.1313998,18.9935484 C81.9786919,19.888172 81.7241788,20.5763441 81.3678603,21.0580645 C81.0115419,21.5397849 80.6382559,21.7806452 80.2480024,21.7806452 Z M78.1355431,33.4967742 C77.8810299,33.4967742 77.6986288,33.4021505 77.5883397,33.2129032 C77.4780507,33.0236559 77.4229062,32.7827957 77.4229062,32.4903226 C77.4229062,31.8021505 77.7113544,31.0021505 78.288251,30.0903226 C78.8651475,29.1784946 79.8068462,28.1548387 81.1133471,27.0193548 C80.6212883,29.2731183 80.1080201,30.916129 79.5735425,31.9483871 C79.0390648,32.9806452 78.5597317,33.4967742 78.1355431,33.4967742 Z" id="travelog"></path>
                    <g id="plane" transform="translate(83.000000, 2.000000)">
                        <path d="M28.5674946,0.217342087 C28.3001595,0.0434684175 27.9994075,-0.0260810505 27.6318218,0.0086936835 C26.9969009,0.113017885 26.4622307,0.356441023 25.9609774,0.738963097 C25.5265578,1.08671044 25.0253045,1.50400724 24.4572174,1.99085352 C24.1898823,2.23427666 23.9225472,2.4776998 23.6552121,2.72112293 C23.4881277,2.8949966 23.3210432,3.03409554 23.1539588,3.20796921 C22.9868744,3.34706815 22.8532068,3.41661761 22.6527055,3.38184288 C22.5524548,3.34706815 22.4187873,3.31229341 22.2851197,3.27751868 L16.0361617,0.843287299 C15.8356604,0.773737831 15.6351591,0.704188363 15.4012409,0.634638895 C14.9334044,0.495539959 14.5992356,0.634638895 14.3987342,0.808512565 C14.0311485,1.08671044 13.7303965,1.43445778 13.5298952,1.81697985 C13.2959769,2.19950192 13.3628107,2.61679873 13.6969796,2.92977134 C13.8306472,3.06887027 13.9643147,3.17319448 14.0645654,3.24274394 C15.2007395,4.07733756 16.3703306,4.87715644 17.5065048,5.71175006 C17.9409243,6.02472266 18.341927,6.30292053 18.642679,6.68544261 C18.7095127,6.78976681 18.7763465,6.85931628 18.8431803,6.96364048 L16.6710826,9.11967399 C16.4371644,9.36309712 16.2032462,9.57174553 15.969328,9.81516867 C15.9359111,9.81516867 15.9024942,9.78039393 15.8690773,9.78039393 L15.5014915,9.60652026 C15.2007395,9.46742133 14.9334044,9.29354766 14.6326525,9.15444872 C14.2650667,8.98057505 13.864064,9.01534978 13.5633121,9.29354766 C13.3962276,9.43264659 13.2291432,9.60652026 13.0620587,9.78039393 C12.7613067,10.0933665 12.7278899,10.4758886 12.995225,10.823636 C13.0620587,10.9279602 13.1288925,10.9975096 13.1957263,11.0670591 L13.8306472,11.9016527 C14.5658187,12.91012 15.3344071,13.9185873 16.1029955,14.8922798 C16.2032462,15.0313788 16.3034968,15.135703 16.4371644,15.2052524 C16.5708319,15.2748019 16.838167,15.4486756 17.1723359,15.3443514 C17.5733386,15.2052524 17.8740906,14.9270546 18.0077581,14.5097578 C18.1414257,14.1620104 18.1748425,13.7794883 18.041175,13.3621915 L17.9743412,13.0492189 C17.9075074,12.7710211 17.8406737,12.4928232 17.7738399,12.2146253 C18.6760959,11.4843559 19.5783518,10.7888612 20.4471909,10.0585918 L20.8816104,9.71084446 L20.9818611,9.88471813 C21.2157793,10.2672402 21.4162807,10.6497623 21.5499482,11.0670591 L23.087125,15.1704777 C23.1873757,15.4139008 23.2542095,15.657324 23.3544601,15.8659724 C23.5215446,16.2484945 23.7888797,16.4571429 24.1230486,16.4571429 C24.2567161,16.4571429 24.3903837,16.4223681 24.5240512,16.3528187 C24.6243019,16.3180439 24.7245525,16.2832692 24.7913863,16.2137197 C25.3260565,15.9355218 25.6602254,15.5529998 25.7938929,15.0313788 C25.8941436,14.614082 25.8607267,14.2315599 25.8273098,13.953362 L25.0253045,7.86778356 C24.9584707,7.38093729 24.891637,6.85931628 24.8248032,6.37247 C24.7913863,6.12904686 24.8582201,5.98994793 25.0253045,5.85084899 L25.7270592,5.22490378 C26.2951462,4.73805751 26.8298165,4.25121123 27.3979035,3.76436495 C27.86574,3.34706815 28.166492,2.96454607 28.4338271,2.54724926 C28.6343284,2.23427666 28.8348297,1.85175458 28.9350804,1.43445778 C29.1021648,0.982386235 28.9350804,0.495539959 28.5674946,0.217342087 Z M28.2994082,1.22402327 C28.1993337,1.57374931 28.0325427,1.88850274 27.8657518,2.16828358 C27.6656026,2.51800962 27.3653789,2.86773566 26.9650807,3.2174617 C26.4313496,3.70707815 25.8642604,4.19669461 25.2971712,4.68631107 L24.6300074,5.28084534 C24.2630673,5.56062617 24.0962764,5.98029742 24.1629927,6.46991387 C24.2297091,6.95953033 24.2964255,7.44914679 24.3631419,7.97373585 L25.1637384,14.0939416 C25.1970966,14.4436676 25.1970966,14.6884758 25.1303802,14.8983114 C25.0303057,15.2130649 24.8301565,15.4578731 24.4965746,15.6327361 C24.4298583,15.6677087 24.3631419,15.7026813 24.2630673,15.7376539 C24.0629182,15.8075991 23.9962018,15.7726265 23.9294854,15.5977635 C23.8294108,15.3879279 23.7626945,15.1431197 23.6626199,14.8983114 L22.1948596,10.7715442 C22.0280686,10.3169003 21.7945613,9.89722907 21.561054,9.47755782 L21.3609048,9.12783178 L21.0606811,8.67318793 L20.0265772,9.47755782 C19.0925479,10.2119825 18.1585186,10.9813798 17.2578475,11.7158045 C17.0243402,11.8906675 17.0576984,12.1005031 17.0910566,12.2403935 C17.1577729,12.555147 17.2578475,12.8699004 17.3245639,13.1846538 L17.3912803,13.4994073 C17.4579966,13.7791881 17.4579966,14.0239963 17.3579221,14.233832 C17.2578475,14.4436676 17.1244147,14.583558 16.8909074,14.6535032 C16.8909074,14.6535032 16.824191,14.6535032 16.7241165,14.583558 C16.6574001,14.5485854 16.5906837,14.4786402 16.5573255,14.408695 C15.7900872,13.3944895 15.056207,12.4152566 14.3223268,11.401051 L13.6885212,10.5617085 C13.6218049,10.4917633 13.5884467,10.4218181 13.5217303,10.3169003 C13.4883721,10.2819277 13.4883721,10.2469551 13.4883721,10.2469551 C13.4883721,10.2469551 13.5217303,10.2119825 13.5550885,10.1770099 C13.6885212,10.0371195 13.8553122,9.86225646 13.9887449,9.75733865 C14.0888195,9.65242084 14.2222523,9.65242084 14.355685,9.72236605 C14.6559087,9.86225646 14.9227742,10.0021469 15.2229979,10.1770099 L15.589938,10.3518729 C15.6566544,10.3868455 15.7233708,10.4218181 15.7900872,10.4567907 C15.9568781,10.5617085 16.1570273,10.5267359 16.3238182,10.3868455 C16.5906837,10.1070647 16.8575492,9.86225646 17.1244147,9.58247563 L19.4261298,7.30925637 L19.6929953,7.02947554 L19.5262044,6.78466731 C19.4928462,6.7147221 19.459488,6.6797495 19.4261298,6.60980429 C19.3260553,6.46991387 19.2593389,6.33002346 19.1592643,6.22510564 C18.7923242,5.77046179 18.3586678,5.42073575 17.8916531,5.10598232 C16.7574747,4.30161242 15.589938,3.46226993 14.4557596,2.62292743 C14.355685,2.55298222 14.2556105,2.48303701 14.1555359,2.3781192 C14.0554613,2.27320139 14.0554613,2.23822879 14.1221777,2.16828358 C14.2889686,1.85353014 14.5558342,1.57374931 14.8560579,1.32894108 C14.9227742,1.25899587 15.0228488,1.22402327 15.2563561,1.29396848 C15.4898635,1.36391368 15.6900126,1.43385889 15.8568035,1.5038041 L22.094785,3.95188638 C22.2615759,4.02183159 22.4283669,4.05680419 22.5617996,4.0917768 C22.9287397,4.16172201 23.2956798,4.05680419 23.5959035,3.77702336 C23.7626945,3.60216034 23.9294854,3.46226993 24.0962764,3.28740691 C24.3631419,3.04259868 24.6300074,2.79779045 24.8968729,2.55298222 C25.4639621,2.06336576 25.9309768,1.64369452 26.3646332,1.29396848 C26.7649315,0.97921504 27.2319462,0.769379416 27.732319,0.699434208 C27.89911,0.664461604 28.0325427,0.699434208 28.1659755,0.769379416 C28.2994082,0.80435202 28.3661246,1.01418764 28.2994082,1.22402327 Z" id="Shape" stroke="#FFFFFF"></path>
                        <path d="M12.7159857,13.2130705 C12.5724343,13.0159736 12.2374812,12.9666994 12.0460794,13.1145221 L0.179168023,22.4273497 C-0.012233773,22.5751724 -0.060084222,22.920092 0.0834671251,23.1171888 C0.179168023,23.2650115 0.32271937,23.3142857 0.466270717,23.3142857 C0.561971615,23.3142857 0.657672514,23.2650115 0.753373412,23.2157373 L12.6202848,13.9029096 C12.859537,13.755087 12.859537,13.4594416 12.7159857,13.2130705 Z" id="Path"></path>
                        <path d="M14.7548894,15.2748598 C14.5661184,15.0727992 14.2829618,15.0222841 14.046998,15.1738295 L6.92089146,21.0335848 C6.73212042,21.1851302 6.68492766,21.5387361 6.82650594,21.7407966 C6.92089146,21.892342 7.06246973,21.9428571 7.20404801,21.9428571 C7.29843353,21.9428571 7.39281905,21.892342 7.48720456,21.8418269 L14.6605039,15.9820716 C14.8492749,15.8305262 14.8964677,15.4769203 14.7548894,15.2748598 Z" id="Path"></path>
                        <path d="M5.99043865,22.1416637 C5.85400463,21.9292824 5.53565859,21.8761871 5.35374657,22.0354731 L4.21679643,23.0442842 C4.03488441,23.2035702 3.9894064,23.5752374 4.12584042,23.7876187 C4.21679643,23.9469047 4.35323045,24 4.48966447,24 C4.58062048,24 4.67157649,23.9469047 4.7625325,23.8938094 L5.89948264,22.8849982 C6.08139466,22.7257123 6.12687267,22.354045 5.99043865,22.1416637 Z" id="Path"></path>
                        <path d="M11.3801699,11.158594 C11.2340745,10.9586487 10.8931852,10.9086624 10.6983914,11.0586214 L4.90327353,15.5573893 C4.70847965,15.7073482 4.65978118,16.0572524 4.80587659,16.2571976 C4.90327353,16.3571702 5.04936893,16.4571429 5.19546434,16.4571429 C5.29286128,16.4571429 5.39025822,16.4071565 5.48765516,16.3571702 L11.282773,11.8584023 C11.4775669,11.7084434 11.5262653,11.3585392 11.3801699,11.158594 Z" id="Path"></path>
                    </g>
                </g>
            </g>
        </g>
    </g>
</svg>